<?xml version="1.0" encoding="UTF-8"?>
<!DOCTYPE svg PUBLIC "-//W3C//DTD SVG 1.1//EN" "http://www.w3.org/Graphics/SVG/1.1/DTD/svg11.dtd">
<svg xmlns="http://www.w3.org/2000/svg" version="1.1" width="512px" height="512px" style="shape-rendering:geometricPrecision; text-rendering:geometricPrecision; image-rendering:optimizeQuality; fill-rule:evenodd; clip-rule:evenodd" xmlns:xlink="http://www.w3.org/1999/xlink">
<g><path style="opacity:1" fill="#2196f2" d="M 30.5,-0.5 C 180.5,-0.5 330.5,-0.5 480.5,-0.5C 496.5,4.16667 506.833,14.5 511.5,30.5C 511.5,135.833 511.5,241.167 511.5,346.5C 507.527,341.86 503.194,337.527 498.5,333.5C 494.5,328.833 490.167,324.5 485.5,320.5C 479.5,313.833 473.167,307.5 466.5,301.5C 457.887,292.221 448.887,283.221 439.5,274.5C 430.833,265.167 421.833,256.167 412.5,247.5C 401.833,236.167 390.833,225.167 379.5,214.5C 371.5,205.833 363.167,197.5 354.5,189.5C 332.45,166.449 309.783,144.116 286.5,122.5C 286.389,121.883 286.056,121.383 285.5,121C 264.927,120.174 244.427,120.341 224,121.5C 190.893,211.352 158.393,301.019 126.5,390.5C 139.167,403.833 152.167,416.833 165.5,429.5C 176.167,440.833 187.167,451.833 198.5,462.5C 206.833,471.5 215.5,480.167 224.5,488.5C 231.833,496.167 239.167,503.833 246.5,511.5C 174.5,511.5 102.5,511.5 30.5,511.5C 14.5,506.833 4.16667,496.5 -0.5,480.5C -0.5,330.5 -0.5,180.5 -0.5,30.5C 4.16667,14.5 14.5,4.16667 30.5,-0.5 Z"/></g>
<g><path style="opacity:1" fill="#fefefe" d="M 286.5,122.5 C 298.657,155.648 310.991,188.648 323.5,221.5C 327.835,233.505 332.168,245.505 336.5,257.5C 342.5,273.833 348.5,290.167 354.5,306.5C 359.324,319.649 364.324,332.649 369.5,345.5C 373.771,358.645 378.437,371.645 383.5,384.5C 383.833,385.833 384.167,387.167 384.5,388.5C 361.673,389.498 338.673,389.831 315.5,389.5C 312.008,378.357 308.341,367.357 304.5,356.5C 303.54,350.787 301.874,345.287 299.5,340C 269.664,339.169 239.997,339.336 210.5,340.5C 205.101,357.032 200.101,373.699 195.5,390.5C 172.5,390.5 149.5,390.5 126.5,390.5C 158.393,301.019 190.893,211.352 224,121.5C 244.427,120.341 264.927,120.174 285.5,121C 286.056,121.383 286.389,121.883 286.5,122.5 Z"/></g>
<g><path style="opacity:1" fill="#1a75be" d="M 286.5,122.5 C 309.783,144.116 332.45,166.449 354.5,189.5C 344.167,200.167 333.833,210.833 323.5,221.5C 310.991,188.648 298.657,155.648 286.5,122.5 Z"/></g>
<g><path style="opacity:1" fill="#1b79c5" d="M 354.5,189.5 C 363.167,197.5 371.5,205.833 379.5,214.5C 366.422,229.081 352.755,243.248 338.5,257C 337.906,257.464 337.239,257.631 336.5,257.5C 332.168,245.505 327.835,233.505 323.5,221.5C 333.833,210.833 344.167,200.167 354.5,189.5 Z"/></g>
<g><path style="opacity:1" fill="#237bc5" d="M 264.5,227.5 C 264.649,228.552 264.483,229.552 264,230.5C 255.333,239.167 246.667,247.833 238,256.5C 237.536,255.906 237.369,255.239 237.5,254.5C 243.019,235.094 248.853,215.761 255,196.5C 258.675,206.69 261.841,217.023 264.5,227.5 Z"/></g>
<g><path style="opacity:1" fill="#1b7dcb" d="M 379.5,214.5 C 390.833,225.167 401.833,236.167 412.5,247.5C 393.885,267.783 374.551,287.449 354.5,306.5C 348.5,290.167 342.5,273.833 336.5,257.5C 337.239,257.631 337.906,257.464 338.5,257C 352.755,243.248 366.422,229.081 379.5,214.5 Z"/></g>
<g><path style="opacity:1" fill="#2183d3" d="M 264.5,227.5 C 268.406,237.889 271.739,248.556 274.5,259.5C 265.555,269.781 256.222,279.781 246.5,289.5C 239.833,289.5 233.167,289.5 226.5,289.5C 229.594,277.555 233.261,265.888 237.5,254.5C 237.369,255.239 237.536,255.906 238,256.5C 246.667,247.833 255.333,239.167 264,230.5C 264.483,229.552 264.649,228.552 264.5,227.5 Z"/></g>
<g><path style="opacity:1" fill="#1c81d1" d="M 412.5,247.5 C 421.833,256.167 430.833,265.167 439.5,274.5C 416.167,298.167 392.833,321.833 369.5,345.5C 364.324,332.649 359.324,319.649 354.5,306.5C 374.551,287.449 393.885,267.783 412.5,247.5 Z"/></g>
<g><path style="opacity:1" fill="#248ee5" d="M 274.5,259.5 C 278.072,268.89 281.072,278.556 283.5,288.5C 271.345,289.495 259.011,289.829 246.5,289.5C 256.222,279.781 265.555,269.781 274.5,259.5 Z"/></g>
<g><path style="opacity:1" fill="#1d84d7" d="M 439.5,274.5 C 448.887,283.221 457.887,292.221 466.5,301.5C 439.167,329.5 411.5,357.167 383.5,384.5C 378.437,371.645 373.771,358.645 369.5,345.5C 392.833,321.833 416.167,298.167 439.5,274.5 Z"/></g>
<g><path style="opacity:1" fill="#d2e9fb" d="M 283.5,288.5 C 284.043,288.56 284.376,288.893 284.5,289.5C 265.004,290.828 245.671,290.828 226.5,289.5C 233.167,289.5 239.833,289.5 246.5,289.5C 259.011,289.829 271.345,289.495 283.5,288.5 Z"/></g>
<g><path style="opacity:1" fill="#1d87dc" d="M 466.5,301.5 C 473.167,307.5 479.5,313.833 485.5,320.5C 485.631,321.239 485.464,321.906 485,322.5C 421.965,385.368 359.132,448.368 296.5,511.5C 283.5,511.5 270.5,511.5 257.5,511.5C 297.5,471.167 337.5,430.833 377.5,390.5C 380.247,390.813 382.914,390.48 385.5,389.5C 385.376,388.893 385.043,388.56 384.5,388.5C 384.167,387.167 383.833,385.833 383.5,384.5C 411.5,357.167 439.167,329.5 466.5,301.5 Z"/></g>
<g><path style="opacity:1" fill="#1e8adf" d="M 485.5,320.5 C 490.167,324.5 494.5,328.833 498.5,333.5C 498.631,334.239 498.464,334.906 498,335.5C 439.299,394.035 380.799,452.701 322.5,511.5C 313.833,511.5 305.167,511.5 296.5,511.5C 359.132,448.368 421.965,385.368 485,322.5C 485.464,321.906 485.631,321.239 485.5,320.5 Z"/></g>
<g><path style="opacity:1" fill="#1e8ce3" d="M 498.5,333.5 C 503.194,337.527 507.527,341.86 511.5,346.5C 511.5,354.5 511.5,362.5 511.5,370.5C 464.167,417.167 417.167,464.167 370.5,511.5C 354.5,511.5 338.5,511.5 322.5,511.5C 380.799,452.701 439.299,394.035 498,335.5C 498.464,334.906 498.631,334.239 498.5,333.5 Z"/></g>
<g><path style="opacity:1" fill="#1c79c5" d="M 210.5,340.5 C 225.17,340.333 239.837,340.5 254.5,341C 224.965,370.702 195.299,400.202 165.5,429.5C 152.167,416.833 139.167,403.833 126.5,390.5C 149.5,390.5 172.5,390.5 195.5,390.5C 200.101,373.699 205.101,357.032 210.5,340.5 Z"/></g>
<g><path style="opacity:1" fill="#1e7ecb" d="M 210.5,340.5 C 239.997,339.336 269.664,339.169 299.5,340C 301.874,345.287 303.54,350.787 304.5,356.5C 269.5,392.167 234.167,427.5 198.5,462.5C 187.167,451.833 176.167,440.833 165.5,429.5C 195.299,400.202 224.965,370.702 254.5,341C 239.837,340.5 225.17,340.333 210.5,340.5 Z"/></g>
<g><path style="opacity:1" fill="#1c81d1" d="M 304.5,356.5 C 308.341,367.357 312.008,378.357 315.5,389.5C 317.948,390.473 320.615,390.806 323.5,390.5C 291.117,423.883 258.117,456.55 224.5,488.5C 215.5,480.167 206.833,471.5 198.5,462.5C 234.167,427.5 269.5,392.167 304.5,356.5 Z"/></g>
<g><path style="opacity:1" fill="#1f8fe7" d="M 511.5,370.5 C 511.5,378.5 511.5,386.5 511.5,394.5C 472.167,433.167 433.167,472.167 394.5,511.5C 386.5,511.5 378.5,511.5 370.5,511.5C 417.167,464.167 464.167,417.167 511.5,370.5 Z"/></g>
<g><path style="opacity:1" fill="#c2e1f9" d="M 384.5,388.5 C 385.043,388.56 385.376,388.893 385.5,389.5C 382.914,390.48 380.247,390.813 377.5,390.5C 359.5,390.5 341.5,390.5 323.5,390.5C 320.615,390.806 317.948,390.473 315.5,389.5C 338.673,389.831 361.673,389.498 384.5,388.5 Z"/></g>
<g><path style="opacity:1" fill="#1d84d7" d="M 323.5,390.5 C 341.5,390.5 359.5,390.5 377.5,390.5C 337.5,430.833 297.5,471.167 257.5,511.5C 253.833,511.5 250.167,511.5 246.5,511.5C 239.167,503.833 231.833,496.167 224.5,488.5C 258.117,456.55 291.117,423.883 323.5,390.5 Z"/></g>
<g><path style="opacity:1" fill="#2091ec" d="M 511.5,394.5 C 511.5,423.167 511.5,451.833 511.5,480.5C 506.868,496.465 496.535,506.798 480.5,511.5C 451.833,511.5 423.167,511.5 394.5,511.5C 433.167,472.167 472.167,433.167 511.5,394.5 Z"/></g>
</svg>
